<svg width="169" height="211" viewBox="0 0 169 211" fill="none" xmlns="http://www.w3.org/2000/svg">
<path d="M84.44 210.35C72.8563 210.293 63.4644 200.948 63.3501 189.365H105.32C105.342 192.171 104.807 194.952 103.746 197.549C100.994 203.866 95.3711 208.473 88.637 209.93H88.5845H88.4272H88.2383H88.1439C86.9246 210.184 85.6844 210.325 84.44 210.35ZM168.38 178.873H0.5V157.888L21.485 147.395V89.6863C20.9323 74.8826 24.2754 60.1932 31.1801 47.0867C38.0531 34.9312 49.8011 26.2998 63.455 23.3736V0.5H105.425V23.3736C132.485 29.816 147.395 53.3612 147.395 89.6863V147.395L168.38 157.888V178.873Z" fill="white"/>
</svg>
