<svg width="16" height="16" viewBox="0 0 16 16">
  <g fillRule="evenodd">
    <path fill="none" d="M0 0h16v16H0z"></path>
    <path d="M7.925 2.743c3.219 0 5.816 2.647 5.835 5.905 0 3.257-2.616 5.904-5.835 5.904-3.22 0-5.836-2.647-5.836-5.904 0-3.258 2.617-5.905 5.836-5.905zm3.5 3.657H8v.857h1.186v3.657h1.016V7.257h1.224V6.4zm-3.84 0H4.857v4.495h1.017v-1.81h1.6v-.818h-1.6V7.238h1.713V6.4zm-2.86-4.952.339.952A6.749 6.749 0 0 0 1.58 6.171L.64 5.83a7.868 7.868 0 0 1 4.085-4.381zm6.4 0a7.905 7.905 0 0 1 4.047 4.266l-.941.343A6.787 6.787 0 0 0 10.786 2.4l.339-.952z" fill="#A4A9B3"></path>
  </g>
</svg>
